<?xml version="1.0" standalone="no"?>
<!DOCTYPE svg PUBLIC "-//W3C//DTD SVG 20010904//EN"
 "http://www.w3.org/TR/2001/REC-SVG-20010904/DTD/svg10.dtd">
<svg version="1.0" xmlns="http://www.w3.org/2000/svg"
 width="287.000000pt" height="287.000000pt" viewBox="0 0 287.000000 287.000000"
 preserveAspectRatio="xMidYMid meet">
<metadata>
Created by potrace 1.11, written by Peter Selinger 2001-2013
</metadata>
<g transform="translate(0.000000,287.000000) scale(0.100000,-0.100000)"
fill="#000000" stroke="none">
<path d="M0 1435 l0 -1435 1435 0 1435 0 0 1435 0 1435 -1435 0 -1435 0 0
-1435z m660 1035 l0 -260 260 0 260 0 0 260 0 260 260 0 260 0 2 -257 3 -258
260 0 260 0 0 258 0 257 263 0 262 0 0 -260 0 -260 -257 -2 -258 -3 -3 -262
-2 -263 -265 0 -265 0 0 -260 0 -260 -260 0 -260 0 0 -260 0 -260 -260 0 -260
0 0 -260 0 -260 -265 0 -265 0 0 265 0 265 265 0 265 0 0 255 0 255 -265 0
-265 0 2 263 3 262 263 3 262 2 0 260 0 261 -252 -1 c-139 0 -259 0 -265 0
-10 0 -13 59 -13 260 l0 260 265 0 265 0 0 -260z"/>
<path d="M1187 2204 c-4 -4 -7 -121 -7 -261 l0 -253 260 0 260 0 -2 258 -3
257 -251 3 c-138 1 -253 -1 -257 -4z"/>
<path d="M664 1681 c-2 -2 -4 -118 -4 -258 l0 -253 260 0 260 0 0 255 0 254
-256 3 c-141 2 -258 1 -260 -1z"/>
</g>
</svg>
